<?xml version="1.0" standalone="no"?>
<!DOCTYPE svg PUBLIC "-//W3C//DTD SVG 20010904//EN"
 "http://www.w3.org/TR/2001/REC-SVG-20010904/DTD/svg10.dtd">
<svg version="1.0" xmlns="http://www.w3.org/2000/svg"
 width="300.000000pt" height="300.000000pt" viewBox="0 0 300.000000 300.000000"
 preserveAspectRatio="xMidYMid meet">
<metadata>
Created by potrace 1.11, written by Peter Selinger 2001-2013
</metadata>
<g transform="translate(0.000000,300.000000) scale(0.100000,-0.100000)"
fill="#000000" stroke="none">
<path d="M542 2075 c-402 -87 -596 -551 -369 -888 123 -185 308 -297 495 -302
228 -5 457 110 759 382 42 37 79 69 84 71 4 2 31 -18 61 -45 162 -147 383
-284 543 -338 155 -52 319 -56 445 -12 239 85 394 302 393 552 -1 164 -59 301
-178 421 -190 191 -454 215 -765 68 -113 -54 -282 -165 -400 -263 -47 -39 -88
-71 -91 -71 -3 0 -14 8 -25 19 -119 110 -327 253 -469 321 -179 86 -343 115
-483 85z m1935 -205 c161 -56 273 -228 256 -393 -28 -277 -283 -432 -556 -338
-133 46 -288 148 -425 281 -81 80 -84 83 -66 100 80 75 265 224 322 259 84 51
195 98 248 107 22 3 40 7 42 9 9 8 132 -8 179 -25z m-1688 6 c144 -31 335
-151 509 -318 l62 -60 -32 -37 c-50 -55 -179 -168 -237 -207 -64 -43 -189
-106 -256 -130 -68 -23 -203 -23 -273 0 -149 50 -264 211 -263 369 1 74 8 104
41 173 51 105 164 194 267 210 21 3 39 7 41 9 4 4 112 -3 141 -9z"/>
</g>
</svg>
